<?xml version="1.0" standalone="no"?>
<!DOCTYPE svg PUBLIC "-//W3C//DTD SVG 20010904//EN"
 "http://www.w3.org/TR/2001/REC-SVG-20010904/DTD/svg10.dtd">
<svg version="1.0" xmlns="http://www.w3.org/2000/svg"
 width="300.000000pt" height="198.000000pt" viewBox="0 0 300.000000 198.000000"
 preserveAspectRatio="xMidYMid meet">

<g transform="translate(0.000000,198.000000) scale(0.100000,-0.100000)"
fill="#000000" stroke="none">
<path d="M2144 1952 c-154 -54 -310 -182 -370 -307 -41 -83 -42 -119 -8 -186
14 -28 24 -57 22 -65 -2 -8 -64 -98 -138 -199 l-135 -184 -50 -5 c-27 -3 -111
-12 -185 -20 -216 -23 -538 -109 -902 -242 -82 -30 -167 -57 -190 -60 -24 -4
-48 -11 -54 -16 -8 -5 -14 -3 -18 7 -3 9 -2 13 3 10 5 -3 17 5 25 17 22 31 20
45 -4 23 -12 -11 -20 -13 -20 -6 0 19 176 190 253 246 37 27 67 52 67 57 0 4
7 8 15 8 8 0 15 4 15 10 0 5 28 28 63 50 34 22 56 40 48 40 -11 0 -9 4 5 15
26 20 40 19 23 -2 -13 -15 -12 -15 8 -5 17 9 22 9 26 -2 3 -8 -1 -20 -9 -26
-11 -10 -14 -10 -14 0 0 15 -28 -3 -119 -74 -35 -27 -59 -52 -52 -54 6 -2 8
-9 5 -14 -4 -7 -2 -8 5 -4 6 4 9 11 6 16 -3 4 15 24 39 44 44 35 63 45 51 26
-3 -5 63 37 147 93 153 103 302 187 332 187 19 0 19 -2 5 -32 -8 -20 -5 -33
24 -81 49 -80 57 -88 86 -85 22 3 27 9 31 44 8 55 35 98 137 216 99 115 225
221 341 290 105 63 107 66 91 128 -11 43 -16 50 -37 50 -58 0 -907 -457 -1092
-588 -137 -97 -259 -200 -376 -316 -135 -134 -244 -274 -244 -312 0 -16 16
-40 48 -69 53 -50 80 -55 152 -30 24 8 51 13 61 10 9 -3 50 7 90 23 41 16 99
37 129 47 30 10 50 20 44 22 -6 2 -61 -14 -123 -36 -61 -21 -111 -36 -111 -32
0 4 48 27 107 50 60 24 114 48 121 54 7 5 15 7 18 5 5 -6 69 11 114 30 14 6
71 25 128 42 56 17 100 34 98 39 -8 12 400 133 563 166 42 9 40 4 -28 -84
l-54 -70 -131 -32 c-335 -82 -786 -257 -786 -305 0 -8 -1 -17 -2 -20 -2 -3 15
-16 37 -28 37 -21 47 -22 120 -14 44 5 150 24 235 44 197 44 258 56 276 52 10
-2 -7 -33 -59 -103 -106 -145 -252 -359 -239 -351 16 9 15 -7 0 -22 -6 -6 -9
-14 -6 -17 3 -3 16 10 29 29 70 99 162 210 238 287 48 47 116 118 152 158 l65
72 165 40 c160 39 279 65 524 114 66 13 152 31 190 39 39 8 95 18 125 22 30 3
66 11 80 16 14 5 45 14 70 18 25 5 79 18 120 29 63 17 87 19 165 11 49 -4 112
-13 139 -20 27 -6 51 -9 53 -6 5 4 -169 46 -193 46 -20 0 -18 17 4 23 117 37
253 108 264 139 10 27 -30 123 -64 151 -37 31 -188 92 -323 131 -76 22 -521
126 -539 126 -17 0 1 37 59 124 35 53 79 124 96 158 17 35 40 74 50 87 23 29
24 64 4 81 -8 7 -15 20 -15 30 0 20 -31 50 -51 50 -8 -1 -37 -9 -65 -18z m-63
-677 c214 -33 615 -123 744 -168 l39 -14 -45 -26 c-57 -34 -225 -96 -349 -130
-86 -24 -116 -26 -330 -30 -160 -4 -287 -12 -399 -27 -89 -12 -165 -19 -168
-17 -2 3 23 35 56 72 34 37 61 72 61 78 0 6 26 38 58 72 31 33 84 93 117 133
68 82 63 81 216 57z m-1358 -76 c-11 -12 -27 -19 -34 -17 -9 3 -3 11 16 21 40
22 43 21 18 -4z m1582 -304 c-56 -24 -893 -237 -908 -232 -6 2 18 33 54 70 56
59 71 69 124 82 32 8 71 15 85 15 14 0 30 4 36 10 5 5 41 14 79 20 39 6 103
17 143 23 67 11 410 21 387 12z m-1499 -116 c-33 -11 -61 -17 -64 -15 -5 6 87
35 108 34 8 0 -12 -9 -44 -19z m-109 -35 c-3 -3 -12 -4 -19 -1 -8 3 -5 6 6 6
11 1 17 -2 13 -5z m556 -66 l-49 -63 -204 -51 c-194 -49 -416 -91 -426 -81
-11 10 163 89 316 143 144 50 359 112 398 113 8 1 -8 -27 -35 -61z"/>
<path d="M389 944 c-21 -24 -22 -26 -3 -16 25 13 50 42 37 42 -5 0 -20 -12
-34 -26z"/>
<path d="M195 786 c-16 -13 -28 -26 -25 -29 3 -3 18 8 34 24 36 35 32 37 -9 5z"/>
<path d="M209 753 c-13 -16 -12 -17 4 -4 16 13 21 21 13 21 -2 0 -10 -8 -17
-17z"/>
</g>
</svg>
